<?xml version="1.0" standalone="no"?>
<!DOCTYPE svg PUBLIC "-//W3C//DTD SVG 20010904//EN"
 "http://www.w3.org/TR/2001/REC-SVG-20010904/DTD/svg10.dtd">
<svg version="1.0" xmlns="http://www.w3.org/2000/svg"
 width="512.000000pt" height="512.000000pt" viewBox="0 0 512.000000 512.000000"
 preserveAspectRatio="xMidYMid meet">
<metadata>
Created by potrace 1.14, written by Peter Selinger 2001-2017
</metadata>
<g transform="translate(0.000000,512.000000) scale(0.100000,-0.100000)"
fill="#000000" stroke="none">
<path d="M3904 4789 c-3 -6 -17 -8 -30 -5 -14 4 -24 2 -24 -4 0 -6 -7 -6 -19
1 -11 8 -26 9 -37 4 -11 -5 -50 -9 -89 -9 -65 -1 -70 -3 -70 -23 0 -11 -3 -25
-7 -29 -5 -4 -8 -2 -8 4 0 7 -7 12 -15 12 -9 0 -12 -6 -9 -15 8 -20 -3 -19
-23 1 -13 12 -13 18 -4 24 10 5 8 9 -4 14 -29 11 -113 7 -117 -6 -3 -8 -12 -9
-36 0 -18 6 -32 8 -32 4 0 -5 -41 -7 -90 -7 -50 1 -93 -2 -96 -6 -2 -5 -12 -5
-21 -2 -29 11 -79 7 -103 -10 -21 -14 -48 -13 -60 3 -3 4 -16 11 -29 15 -21 6
-23 5 -18 -13 6 -27 -18 -50 -27 -27 -4 11 -13 14 -26 10 -15 -5 -22 -1 -28
14 -9 25 -24 28 -32 6 -5 -15 -8 -15 -21 -4 -10 10 -44 14 -124 14 l-110 0 -3
-37 -3 -38 -342 -2 c-188 -1 -357 -1 -375 0 -18 1 -31 -2 -28 -7 3 -4 -8 -8
-24 -7 -17 1 -30 4 -30 9 0 12 -115 8 -129 -5 -11 -10 -14 -10 -18 0 -3 6 -20
12 -39 12 -20 0 -35 -5 -36 -12 0 -7 -2 -17 -2 -23 -1 -5 -4 -14 -7 -20 -4 -5
-9 -23 -13 -38 -6 -24 -3 -30 14 -34 11 -3 20 -9 20 -13 0 -5 9 -6 20 -3 10 3
19 8 18 12 -2 18 3 31 12 31 6 0 10 -9 10 -19 0 -10 7 -21 15 -25 8 -3 15 -11
15 -17 0 -8 -7 -6 -18 4 -14 13 -21 14 -30 5 -7 -7 -28 -11 -47 -10 -39 4 -49
-9 -59 -75 -3 -23 -8 -47 -11 -55 -4 -10 8 -13 49 -13 46 0 56 3 61 20 l6 20
8 -20 c5 -11 7 -21 6 -23 -2 -2 -26 -5 -54 -7 -68 -5 -91 -13 -91 -32 0 -13 3
-13 16 -2 13 11 17 10 25 -4 6 -9 17 -17 26 -17 14 0 15 -2 4 -12 -10 -11 -15
-10 -25 5 -18 23 -25 21 -19 -5 4 -22 4 -23 -11 -4 -9 11 -16 18 -16 15 0 -2
-4 -20 -10 -39 -9 -32 -8 -34 6 -15 12 16 17 17 23 7 7 -11 10 -10 15 3 9 25
24 9 18 -20 -2 -15 0 -25 7 -25 6 0 11 9 11 20 0 23 31 41 38 22 2 -7 13 -12
24 -12 17 0 19 4 14 25 -6 25 7 35 19 15 12 -20 -6 -50 -31 -50 -13 0 -24 -4
-24 -10 0 -5 5 -10 10 -10 6 0 10 -5 10 -11 0 -6 -7 -8 -16 -5 -14 5 -15 4 -4
-9 7 -9 10 -18 6 -22 -3 -4 -12 7 -18 24 -10 27 -14 29 -30 19 -15 -9 -21 -8
-28 4 -5 8 -10 11 -10 5 0 -5 -4 -5 -8 2 -9 15 -52 6 -52 -11 0 -7 5 -17 12
-24 9 -9 8 -12 -5 -12 -11 0 -20 -14 -27 -42 -6 -24 -15 -60 -21 -81 -5 -20
-7 -42 -4 -47 3 -6 2 -10 -3 -10 -5 0 -12 -9 -15 -20 -5 -18 -11 -19 -66 -14
-63 7 -155 -11 -145 -28 3 -5 0 -15 -6 -23 -6 -8 -9 -19 -5 -24 3 -7 0 -8 -9
-5 -9 3 -16 1 -16 -5 0 -16 30 -13 36 4 4 8 11 12 16 9 6 -4 5 -10 -3 -15 -12
-8 -12 -10 -1 -18 11 -7 12 -12 1 -29 -17 -27 8 -55 35 -40 10 5 20 7 23 4 4
-3 1 -6 -5 -6 -8 0 -9 -7 -2 -26 17 -44 22 -106 8 -101 -8 2 -12 16 -10 33 2
24 -2 33 -21 41 -25 12 -74 7 -83 -8 -10 -16 -24 -9 -24 11 0 11 5 20 10 20 6
0 10 5 10 11 0 6 -14 9 -32 7 -28 -2 -34 -8 -36 -30 -3 -23 1 -28 20 -28 22
-1 22 -1 4 -15 -17 -13 -17 -17 -5 -47 12 -29 51 -73 91 -103 51 -39 157 -105
166 -105 7 0 12 -4 12 -10 0 -5 9 -10 21 -10 11 0 18 -4 14 -9 -3 -6 4 -15 16
-21 15 -8 19 -9 15 -1 -4 6 -2 11 3 11 6 0 11 -7 11 -15 0 -8 81 -69 180 -135
l180 -120 0 -184 c0 -154 -2 -185 -15 -190 -8 -3 -65 -11 -125 -17 -91 -10
-110 -15 -105 -27 4 -12 3 -13 -9 -2 -17 14 -206 4 -206 -11 0 -5 13 -18 29
-30 17 -12 27 -27 24 -36 -4 -9 -9 -10 -18 -3 -6 5 -15 7 -18 3 -12 -11 -8
-23 8 -23 8 0 15 -5 15 -11 0 -5 -5 -7 -11 -4 -6 4 -5 -2 3 -14 7 -11 20 -20
28 -18 9 1 14 -5 12 -16 -2 -9 23 -57 55 -105 31 -48 91 -142 134 -209 42 -67
80 -119 84 -115 5 4 5 2 1 -5 -3 -6 16 -48 43 -93 l49 -82 -29 -53 c-16 -29
-25 -56 -21 -60 4 -5 2 -5 -4 -2 -13 8 -69 -97 -59 -112 3 -6 0 -11 -8 -11
-16 0 -161 -276 -152 -290 3 -6 1 -10 -5 -10 -13 0 -63 -108 -55 -120 3 -5 0
-12 -7 -17 -11 -7 -48 -75 -48 -88 0 -3 9 -5 20 -5 11 0 20 7 20 15 0 8 5 15
10 15 6 0 10 9 10 20 0 11 7 20 15 20 9 0 12 6 9 15 -5 11 -2 13 10 9 9 -3 16
-1 16 5 0 6 -10 11 -21 11 -21 0 -21 1 4 20 30 24 45 26 27 5 -10 -12 -10 -15
2 -15 8 0 19 5 26 12 9 9 12 9 12 0 0 -7 12 -17 27 -23 15 -6 23 -13 18 -17
-12 -9 -16 -42 -5 -42 4 0 11 -7 14 -16 3 -8 2 -13 -3 -10 -5 3 -11 0 -14 -8
-3 -8 2 -16 15 -19 19 -5 17 -27 -3 -27 -6 0 -7 5 -3 12 4 7 3 8 -5 4 -6 -4
-23 -1 -36 8 -13 9 -31 16 -40 16 -21 0 -19 17 3 23 14 4 14 6 -5 12 -13 4
-20 12 -16 18 3 6 1 7 -6 3 -7 -5 -10 -20 -7 -37 3 -20 0 -29 -10 -29 -18 0
-18 -14 0 -29 8 -6 19 -25 26 -41 7 -18 17 -27 26 -23 8 3 14 0 14 -6 0 -6 -5
-11 -11 -11 -5 0 -7 -6 -3 -12 5 -9 2 -8 -9 1 -10 8 -20 11 -23 8 -7 -7 36
-67 48 -67 5 0 7 4 4 8 -2 4 5 14 16 21 18 11 20 11 15 -3 -4 -9 -3 -16 2 -16
5 0 11 -11 13 -25 6 -28 -3 -32 -22 -10 -19 23 -43 0 -27 -26 13 -21 76 -37
86 -22 8 13 53 24 45 11 -4 -6 1 -8 15 -3 14 4 21 2 21 -7 1 -7 6 -3 13 10 7
12 16 20 20 16 3 -3 20 -1 38 5 27 9 35 8 52 -6 19 -17 19 -17 13 2 -5 17 -1
20 32 21 20 0 46 4 57 9 20 8 20 8 1 -13 -11 -12 -17 -24 -15 -26 19 -17 57
-26 106 -26 l58 0 20 56 c11 31 24 57 29 58 5 0 22 -35 36 -79 15 -44 32 -79
38 -78 5 1 12 -11 14 -27 3 -17 0 -27 -6 -23 -5 4 -7 0 -4 -8 3 -8 13 -41 23
-74 16 -57 16 -59 -2 -71 -71 -48 -111 -80 -107 -86 3 -5 -1 -8 -8 -8 -7 0
-33 -21 -58 -46 -35 -36 -41 -47 -29 -55 11 -7 9 -9 -8 -9 -12 0 -25 -5 -28
-11 -15 -23 7 -20 59 11 40 22 56 38 57 53 0 12 3 16 6 10 2 -7 9 -13 14 -13
5 0 8 6 6 13 -1 6 3 11 10 10 6 -1 14 4 17 12 3 8 1 15 -3 15 -5 0 -12 7 -15
16 -6 16 6 12 36 -13 14 -12 20 -12 45 0 48 23 117 22 165 -5 44 -24 83 -57
71 -59 -5 -1 -16 0 -26 1 -13 1 -18 -4 -15 -19 2 -11 -9 -33 -27 -52 -21 -23
-25 -30 -12 -26 11 4 30 10 44 13 18 5 21 9 12 15 -23 14 -7 16 93 11 97 -4
98 -5 92 -28 -5 -19 -3 -23 9 -18 8 3 18 1 21 -4 3 -5 17 -7 31 -5 17 4 27 0
31 -11 3 -9 10 -16 16 -16 5 0 7 4 3 9 -3 5 -1 12 4 15 5 3 11 -3 14 -13 5
-22 57 -26 57 -5 0 8 9 14 20 14 11 0 20 7 20 15 0 8 -9 15 -20 15 -12 0 -34
7 -50 15 -19 10 -30 11 -30 5 0 -6 -4 -8 -10 -5 -13 8 -13 25 1 25 6 0 18 7
27 16 13 13 17 14 21 3 2 -7 11 -20 19 -28 17 -17 56 -26 47 -11 -3 5 -14 10
-23 10 -14 0 -15 2 -2 10 16 10 15 12 -22 28 -15 6 -35 9 -43 6 -10 -4 -15 0
-15 12 0 15 -2 16 -9 5 -5 -8 -7 -21 -3 -29 3 -9 1 -13 -5 -9 -6 4 -13 2 -15
-5 -3 -8 -19 -9 -58 -2 -47 8 -55 12 -55 31 0 30 -18 34 -29 7 l-10 -22 -45
25 c-25 14 -55 34 -66 44 -17 17 -18 19 -2 19 9 0 17 -6 17 -14 0 -7 15 -20
32 -27 47 -19 60 -20 54 -3 -3 9 2 18 12 21 9 4 22 12 28 18 16 16 12 188 -5
209 -12 14 -12 19 1 34 21 25 22 81 1 105 -17 19 -17 20 0 14 15 -6 17 0 17
45 0 47 -1 49 -17 37 -17 -13 -17 -13 -1 6 15 19 17 92 18 944 0 509 2 927 5
929 2 3 114 -19 247 -48 134 -29 315 -66 403 -81 155 -28 439 -63 466 -58 8 1
22 -1 32 -6 9 -4 30 -5 46 -3 36 5 33 -4 -28 -87 -67 -90 -96 -134 -239 -365
-136 -218 -308 -551 -298 -576 3 -9 1 -12 -4 -9 -6 3 -10 5 -10 3 0 -2 -29
-74 -64 -159 -35 -85 -73 -189 -86 -230 -12 -41 -28 -85 -35 -99 -7 -14 -15
-37 -19 -52 -5 -22 -3 -26 8 -22 8 3 23 1 33 -6 16 -10 15 -11 -7 -6 -36 7
-43 0 -69 -83 -23 -72 -23 -75 -5 -88 11 -7 27 -20 37 -29 25 -21 30 -13 31
44 1 44 3 48 21 44 18 -5 18 -3 6 11 -11 14 -11 18 2 23 25 9 8 37 -19 31 -13
-2 -24 0 -24 5 0 5 14 11 30 14 17 4 30 13 30 21 0 7 7 16 15 19 16 6 21 34 7
34 -19 0 -4 40 21 61 22 17 25 24 16 35 -8 9 -8 14 -1 14 14 0 11 42 -3 53 -6
5 -2 7 10 5 33 -4 46 9 35 37 -7 20 -6 25 5 25 8 0 16 6 17 13 0 6 2 17 3 22
2 6 3 16 4 23 0 7 6 10 11 7 6 -3 10 1 10 9 0 9 -15 24 -34 33 -32 17 -33 20
-20 37 8 12 14 14 14 7 0 -9 8 -11 24 -7 15 4 26 1 29 -7 3 -7 9 -2 15 13 6
17 6 27 -2 33 -8 5 -7 9 2 16 8 4 13 11 13 15 -3 23 0 36 8 31 17 -10 21 12 6
25 -10 9 -15 9 -15 1 0 -6 -4 -11 -10 -11 -15 0 -12 12 10 40 10 14 22 21 27
17 4 -5 1 -12 -7 -17 -11 -7 -9 -9 8 -7 12 0 22 7 22 14 0 7 9 20 19 30 18 17
25 40 22 70 0 6 -13 16 -28 22 l-28 11 29 -5 c23 -5 27 -3 22 10 -4 11 2 19
19 25 14 5 25 16 25 25 0 8 9 20 19 27 10 6 17 17 14 23 -2 7 3 15 11 18 9 4
16 15 16 25 0 10 5 23 11 29 8 8 8 13 0 17 -6 4 -11 2 -11 -3 0 -6 -7 -11 -15
-11 -18 0 -19 7 -3 24 7 7 21 11 31 8 10 -2 17 -1 15 4 -2 5 0 9 3 9 13 0 51
40 66 69 8 15 11 26 6 23 -5 -3 -15 -2 -23 4 -12 7 -10 9 8 9 16 0 22 5 20 18
-2 11 3 17 14 16 10 -1 15 2 12 7 -3 5 -1 9 5 9 6 0 8 6 5 13 -2 7 8 27 23 43
53 58 71 85 66 105 -5 19 36 69 57 69 11 0 29 31 33 58 2 11 9 27 16 35 9 12
10 21 1 36 -9 17 -8 21 5 21 8 0 15 5 15 10 0 6 3 9 8 9 22 -4 42 2 42 13 0 6
7 19 15 28 14 16 13 19 -20 34 -19 9 -35 21 -35 26 0 13 10 12 40 -5 33 -19
50 -19 50 0 0 8 -3 14 -7 14 -8 -1 -12 0 -30 6 -5 2 -18 6 -30 10 -33 10 -28
28 5 21 31 -7 58 6 48 23 -11 16 -26 13 -20 -4 7 -17 -21 -21 -31 -4 -4 6 -13
8 -20 5 -8 -3 -19 11 -28 34 -16 43 -12 59 10 32 10 -12 13 -13 11 -2 -2 11
10 14 64 11 43 -1 69 2 74 10 5 8 0 10 -17 6 -13 -3 -35 1 -49 9 -24 14 -24
15 18 8 28 -4 42 -2 42 6 0 6 4 9 9 6 5 -4 11 -1 13 6 3 9 9 8 22 -5 10 -9 22
-17 27 -17 5 0 9 -4 9 -10 0 -5 -15 -7 -32 -4 l-33 5 33 -18 c26 -13 35 -14
41 -5 8 13 41 6 41 -7 0 -4 21 -8 47 -10 26 -1 50 -4 55 -7 4 -3 8 0 8 5 0 6
-5 11 -11 11 -5 0 -7 5 -3 11 4 7 9 8 13 1 7 -12 61 -11 61 1 0 4 11 5 25 1
22 -5 25 -3 27 22 0 16 1 35 1 42 -1 7 4 11 11 9 6 -3 10 -10 8 -17 -3 -14 61
-3 66 11 2 5 12 9 23 9 16 0 19 8 20 43 1 23 3 53 4 67 2 14 -1 30 -6 36 -6 8
-4 14 6 18 9 3 13 10 10 16 -3 5 -2 10 2 10 5 0 8 12 7 28 -1 15 2 32 6 37 3
6 7 22 8 37 1 21 -5 31 -27 42 -24 13 -31 13 -48 1 -11 -8 -23 -11 -27 -8 -3
4 -14 8 -24 9 -59 10 -72 13 -81 18 -6 4 -26 0 -45 -8 -25 -10 -45 -12 -66 -6
-17 5 -39 7 -50 5 -11 -2 -20 1 -20 6 0 5 -17 9 -37 9 -78 -2 -308 11 -315 18
-10 10 32 55 65 69 15 7 30 20 33 28 4 8 12 15 20 15 20 0 84 43 84 56 0 6 12
14 28 17 15 3 54 31 86 62 45 42 59 63 60 86 1 19 5 27 13 24 9 -3 11 5 9 26
-2 16 0 32 5 35 5 3 9 16 9 30 0 13 5 24 10 24 13 0 3 47 -17 79 -9 14 -10 21
-3 16 14 -9 -1 23 -31 66 -10 14 -16 29 -12 33 3 3 1 6 -5 6 -6 0 -25 13 -43
30 -18 16 -36 27 -41 24 -4 -3 -8 -1 -8 4 0 5 -14 16 -32 25 -31 15 -147 18
-193 4 -11 -3 -24 -6 -28 -6 -4 -1 -13 -14 -18 -31 -9 -25 -15 -29 -35 -24
-18 5 -26 1 -34 -18 -10 -21 -17 -23 -63 -21 -28 1 -57 -3 -63 -8 -16 -13 -44
0 -44 20 0 11 3 12 8 4 10 -15 97 1 119 23 13 12 18 13 25 2 5 -8 6 3 3 30 -6
40 5 56 20 32 9 -14 35 7 35 28 0 8 10 24 23 36 12 11 28 34 35 49 6 15 17 25
22 22 5 -3 15 5 22 19 6 14 15 26 19 26 4 0 6 11 5 24 -2 16 1 23 9 20 15 -6
98 91 93 108 -5 13 66 88 82 88 6 0 10 7 10 16 0 9 13 28 28 42 38 36 37 68
-1 64 -20 -2 -27 1 -22 8 4 7 17 10 29 8 30 -6 45 13 39 46 -5 23 -10 27 -29
23 -26 -5 -59 23 -36 30 18 7 15 26 -8 46 -12 10 -18 22 -15 27 3 6 -3 10 -14
10 -11 0 -23 5 -26 10 -8 13 -72 13 -81 -1z m-224 -50 c0 -5 -4 -9 -10 -9 -5
0 -10 7 -10 16 0 8 5 12 10 9 6 -3 10 -10 10 -16z m-205 -9 c3 -5 -1 -10 -9
-10 -9 0 -16 5 -16 10 0 6 4 10 9 10 6 0 13 -4 16 -10z m39 -31 c-3 -5 -12 -9
-21 -9 -12 0 -13 3 -4 13 6 8 7 18 3 23 -4 4 1 2 10 -5 10 -7 15 -17 12 -22z
m380 16 c3 -8 1 -15 -4 -15 -6 0 -10 7 -10 15 0 8 2 15 4 15 2 0 6 -7 10 -15z
m-814 -15 c18 -12 2 -12 -25 0 -13 6 -15 9 -5 9 8 0 22 -4 30 -9z m350 -11 c0
-5 -4 -9 -10 -9 -5 0 -10 7 -10 16 0 8 5 12 10 9 6 -3 10 -10 10 -16z m-590
-3 c0 -2 -7 -7 -16 -10 -8 -3 -12 -2 -9 4 6 10 25 14 25 6z m891 -23 c13 -16
12 -17 -3 -4 -17 13 -22 21 -14 21 2 0 10 -8 17 -17z m-1971 -3 c0 -5 -4 -10
-10 -10 -5 0 -10 5 -10 10 0 6 5 10 10 10 6 0 10 -4 10 -10z m1257 4 c-3 -4 1
-13 9 -21 20 -20 13 -35 -17 -40 -17 -2 -20 0 -10 6 9 6 11 18 7 35 -4 17 -2
26 5 26 7 0 10 -3 6 -6z m913 -15 c0 -14 -16 -11 -29 5 -10 12 -8 13 8 9 12
-3 21 -9 21 -14z m-2320 -9 c0 -11 -7 -20 -15 -20 -8 0 -15 5 -15 11 0 5 5 7
10 4 6 -3 10 1 10 9 0 9 2 16 5 16 3 0 5 -9 5 -20z m370 10 c0 -5 -6 -10 -14
-10 -8 0 -18 5 -21 10 -3 6 3 10 14 10 12 0 21 -4 21 -10z m30 6 c0 -3 -4 -8
-10 -11 -5 -3 -10 -1 -10 4 0 6 5 11 10 11 6 0 10 -2 10 -4z m500 0 c0 -11
-13 -36 -19 -36 -4 0 -7 9 -7 20 0 11 6 20 13 20 7 0 13 -2 13 -4z m-50 -86
c-6 -11 -12 -20 -13 -20 -1 0 -2 23 -2 51 0 50 0 50 13 19 9 -22 9 -36 2 -50z
m512 54 c-3 -19 -7 -22 -13 -12 -7 11 -11 10 -19 -2 -5 -8 -10 -10 -10 -5 0
15 13 31 30 38 8 3 16 6 16 6 1 1 -1 -11 -4 -25z m838 12 c0 -2 -7 -9 -15 -16
-12 -10 -15 -10 -15 4 0 9 7 16 15 16 8 0 15 -2 15 -4z m164 -10 c-3 -8 4 -24
16 -36 12 -12 19 -24 16 -27 -3 -4 -16 6 -29 20 -12 15 -28 27 -35 27 -13 0
-16 13 -5 23 13 13 43 7 37 -7z m-2104 -6 c-20 -13 -33 -13 -25 0 3 6 14 10
23 10 15 0 15 -2 2 -10z m-175 -21 c5 -5 0 -9 -12 -9 -12 0 -25 5 -28 10 -4 6
-11 8 -16 5 -5 -4 -9 -1 -9 5 0 11 49 3 65 -11z m75 12 c0 -13 -21 -19 -45
-12 -18 4 -18 6 5 12 36 10 40 10 40 0z m1315 -7 c25 4 53 -6 57 -19 2 -5 -9
-10 -24 -10 -16 -1 -28 2 -28 6 0 3 -12 5 -27 3 -16 -2 -23 -2 -16 2 7 3 9 13
6 22 -3 11 -2 13 4 5 5 -7 17 -11 28 -9z m577 -6 c-7 -7 -12 -8 -12 -2 0 6 3
14 7 17 3 4 9 5 12 2 2 -3 -1 -11 -7 -17z m-1847 2 c-3 -5 -10 -10 -16 -10 -5
0 -9 5 -9 10 0 6 7 10 16 10 8 0 12 -4 9 -10z m89 -5 c-4 -8 -16 -15 -28 -15
-20 0 -20 1 4 14 14 8 26 14 27 15 1 1 0 -6 -3 -14z m81 -5 c3 -5 -1 -10 -9
-10 -9 0 -16 5 -16 10 0 6 4 10 9 10 6 0 13 -4 16 -10z m-375 -4 c0 -2 -3 -11
-6 -20 -9 -23 -24 -20 -24 4 0 11 7 20 15 20 8 0 15 -2 15 -4z m1355 -14 c6
-4 11 -13 13 -21 3 -12 0 -12 -12 -2 -11 9 -20 10 -35 1 -25 -13 -27 -7 -5 14
17 18 24 19 39 8z m705 -2 c0 -5 -2 -10 -4 -10 -3 0 -8 5 -11 10 -3 6 -1 10 4
10 6 0 11 -4 11 -10z m-1418 -30 c-3 -30 -2 -29 -34 -23 -33 6 -38 26 -5 21
17 -2 21 1 19 16 -2 11 1 16 10 13 7 -2 12 -15 10 -27z m612 5 c-4 -8 -11 -15
-16 -15 -6 0 -5 6 2 15 7 8 14 15 16 15 2 0 1 -7 -2 -15z m-1174 -5 c0 -5 -2
-10 -4 -10 -3 0 -8 5 -11 10 -3 6 -1 10 4 10 6 0 11 -4 11 -10z m92 -12 c-7
-7 -12 -8 -12 -2 0 14 12 26 19 19 2 -3 -1 -11 -7 -17z m1038 1 c0 -4 -7 -6
-15 -3 -8 4 -15 10 -15 15 0 4 7 6 15 3 8 -4 15 -10 15 -15z m265 11 c3 -5 1
-10 -4 -10 -6 0 -11 5 -11 10 0 6 2 10 4 10 3 0 8 -4 11 -10z m-1265 -10 c0
-5 -2 -10 -4 -10 -3 0 -8 5 -11 10 -3 6 -1 10 4 10 6 0 11 -4 11 -10z m330 6
c0 -3 -4 -8 -10 -11 -5 -3 -10 -1 -10 4 0 6 5 11 10 11 6 0 10 -2 10 -4z m280
-26 c0 -11 -4 -20 -9 -20 -5 0 -7 9 -4 20 3 11 7 20 9 20 2 0 4 -9 4 -20z
m1353 -1 c5 -3 0 -9 -11 -11 -15 -4 -19 -1 -17 11 2 9 4 18 4 20 1 2 4 0 9 -5
4 -5 11 -12 15 -15z m-1603 1 c0 -5 -5 -10 -11 -10 -5 0 -7 5 -4 10 3 6 8 10
11 10 2 0 4 -4 4 -10z m418 -8 c15 -10 36 -22 46 -26 10 -3 16 -9 12 -13 -3
-3 1 -15 11 -25 9 -10 13 -18 9 -18 -11 0 -36 27 -36 39 0 15 -80 6 -91 -10
-6 -11 -9 -8 -9 9 0 20 19 62 28 62 2 0 16 -8 30 -18z m419 12 c-3 -3 -12 -4
-19 -1 -8 3 -5 6 6 6 11 1 17 -2 13 -5z m243 -3 c0 -17 -18 -21 -24 -6 -3 9 0
15 9 15 8 0 15 -4 15 -9z m405 -1 c3 -5 1 -10 -4 -10 -6 0 -11 5 -11 10 0 6 2
10 4 10 3 0 8 -4 11 -10z m-2005 -22 c0 -6 -6 -5 -15 2 -8 7 -15 14 -15 16 0
2 7 1 15 -2 8 -4 15 -11 15 -16z m2069 -29 c-13 -25 -11 -35 3 -21 7 7 19 12
28 12 8 -1 3 -7 -13 -16 -32 -18 -47 -12 -40 16 3 12 -1 22 -11 26 -9 3 -16
10 -16 14 0 5 13 3 29 -3 24 -9 28 -14 20 -28z m-1959 -2 c0 -5 -7 -6 -16 -3
-9 3 -18 6 -20 6 -2 0 -4 7 -4 15 0 13 3 13 20 3 11 -7 20 -17 20 -21z m977 3
c-4 -16 -2 -32 3 -35 17 -11 11 -20 -15 -21 -15 -1 -25 4 -25 11 0 7 -3 21 -6
29 -5 12 -2 15 12 9 12 -5 15 -3 9 6 -4 8 -2 17 6 22 21 13 22 12 16 -21z
m1093 10 c-7 -4 -22 -5 -33 -2 -20 5 -20 6 -1 12 24 9 51 1 34 -10z m-1146 -4
c-10 -8 -21 -12 -24 -10 -5 6 21 24 34 24 6 0 1 -6 -10 -14z m533 8 c-3 -3
-12 -4 -19 -1 -8 3 -5 6 6 6 11 1 17 -2 13 -5z m769 -13 c0 -12 -6 -17 -17
-14 -10 3 -15 11 -12 19 8 20 29 17 29 -5z m-2366 -1 c0 -5 -4 -10 -10 -10 -5
0 -10 5 -10 10 0 6 5 10 10 10 6 0 10 -4 10 -10z m195 0 c-3 -5 -1 -10 6 -10
7 0 10 -3 6 -6 -3 -4 -14 -3 -24 0 -15 6 -15 8 -3 16 19 12 23 12 15 0z m227
-39 c-9 -2 -22 -7 -28 -12 -6 -5 -18 -7 -26 -4 -8 3 -25 1 -39 -4 -13 -5 -18
-10 -11 -10 6 -1 12 -6 12 -12 0 -6 -6 -9 -12 -6 -7 2 -21 0 -31 -5 -26 -14
-34 -1 -11 18 18 14 16 15 -29 10 -27 -3 -54 -9 -60 -13 -16 -10 -137 -12
-143 -2 -2 4 5 13 17 19 15 8 19 9 15 1 -4 -6 -3 -11 3 -11 5 0 12 4 15 8 3 5
19 7 35 4 16 -2 44 3 60 11 17 9 31 11 31 6 0 -6 9 -5 21 1 11 7 23 9 26 6 3
-3 14 -1 23 4 13 7 20 6 24 -6 3 -8 11 -12 17 -9 6 4 8 13 5 20 -3 9 8 16 32
22 31 8 40 6 54 -12 15 -19 15 -20 0 -24z m791 42 c3 -5 -1 -14 -9 -21 -12
-11 -14 -9 -14 8 0 20 14 27 23 13z m-1140 -17 c4 -10 1 -13 -9 -9 -15 6 -19
23 -5 23 5 0 11 -7 14 -14z m637 4 c0 -5 -2 -10 -4 -10 -3 0 -8 5 -11 10 -3 6
-1 10 4 10 6 0 11 -4 11 -10z m1284 -6 c3 -9 6 -23 6 -32 -1 -12 -5 -10 -15 8
-8 14 -14 28 -15 33 0 13 18 7 24 -9z m-576 -29 c-3 -3 -9 2 -12 12 -6 14 -5
15 5 6 7 -7 10 -15 7 -18z m-688 -5 c0 -5 -5 -10 -11 -10 -5 0 -7 5 -4 10 3 6
8 10 11 10 2 0 4 -4 4 -10z m137 -22 c-3 -8 -6 -5 -6 6 -1 11 2 17 5 13 3 -3
4 -12 1 -19z m923 12 c-20 -13 -33 -13 -25 0 3 6 14 10 23 10 15 0 15 -2 2
-10z m-1360 -4 c0 -11 -19 -15 -25 -6 -3 5 1 10 9 10 9 0 16 -2 16 -4z m1165
-17 c-5 -14 -2 -25 6 -30 10 -6 8 -9 -8 -9 -20 0 -21 3 -12 30 12 34 24 42 14
9z m-1225 -10 c0 -5 -7 -9 -15 -9 -9 0 -12 6 -9 15 6 15 24 11 24 -6z m1300
-5 c0 -2 -9 -4 -21 -4 -11 0 -18 4 -14 10 5 8 35 3 35 -6z m-915 -4 c-3 -5
-11 -10 -16 -10 -6 0 -7 5 -4 10 3 6 11 10 16 10 6 0 7 -4 4 -10z m-731 -24
c19 7 21 0 3 -15 -11 -8 -18 -6 -33 11 -12 15 -13 18 -3 10 9 -7 24 -10 33 -6z
m179 -3 c-3 -6 -11 -9 -19 -6 -20 7 -17 19 5 19 11 0 17 -6 14 -13z m-241 -25
c-9 -9 -12 -7 -12 12 0 19 3 21 12 12 9 -9 9 -15 0 -24z m1968 18 c0 -8 -4
-18 -10 -21 -5 -3 -10 3 -10 14 0 12 5 21 10 21 6 0 10 -6 10 -14z m-1566 -20
c-3 -9 -10 -16 -16 -16 -5 0 -7 -4 -4 -8 2 -4 -5 -9 -17 -9 -15 -2 -18 0 -9 6
10 6 7 10 -10 14 -34 10 -38 9 -32 -8 4 -8 1 -15 -5 -15 -15 0 -14 30 2 34 29
8 92 22 95 20 1 0 0 -9 -4 -18z m1681 -1 c1 -16 -4 -21 -23 -20 -14 0 -27 -6
-30 -14 -3 -8 0 -11 7 -7 7 4 9 1 5 -8 -5 -12 -9 -13 -24 -3 -16 9 -17 14 -6
27 7 8 16 22 19 31 8 24 50 19 52 -6z m-1930 6 c9 -15 -34 -49 -56 -44 -10 3
-16 9 -13 15 3 5 14 6 24 3 12 -4 19 1 23 15 6 22 13 25 22 11z m880 -29 c4 4
12 2 19 -4 7 -7 10 -49 9 -122 -1 -61 -2 -137 -2 -168 -1 -58 -1 -58 -31 -58
l-30 0 0 78 c0 47 -5 83 -12 90 -9 9 -9 12 0 12 8 0 12 22 12 70 0 68 1 70 25
70 14 0 25 5 25 10 0 6 -9 10 -20 10 -11 0 -20 2 -20 4 0 2 -3 13 -6 23 -6 16
-5 15 9 -2 8 -11 18 -17 22 -13z m225 -7 c17 -9 30 -21 30 -27 0 -7 -7 -5 -17
4 -10 8 -27 20 -38 26 -31 17 -8 14 25 -3z m-976 -4 c3 -5 -1 -14 -8 -20 -12
-10 -13 -8 -9 8 6 23 9 25 17 12z m1876 -32 c0 -4 -4 -11 -10 -14 -5 -3 -7 0
-4 8 4 10 -3 13 -26 9 -26 -4 -30 -8 -25 -26 6 -21 6 -21 -9 -2 -25 31 -20 44
17 42 23 -1 31 3 29 14 -1 10 2 9 13 -4 8 -11 15 -23 15 -27z m40 15 c0 -8 -7
-14 -15 -14 -15 0 -21 21 -9 33 10 9 24 -2 24 -19z m-1938 -39 c9 4 19 1 24
-6 5 -8 3 -10 -5 -5 -7 5 -21 0 -33 -11 -18 -15 -20 -15 -15 -2 4 13 1 16 -16
11 -20 -5 -20 -4 -8 11 7 9 9 17 3 17 -5 0 -12 -7 -16 -15 -9 -24 -26 -17 -26
10 0 14 5 25 11 25 5 0 7 6 3 13 -4 6 9 -3 28 -21 21 -20 41 -30 50 -27z m95
10 c-9 -9 -17 -10 -32 -2 -19 10 -19 10 0 17 29 10 47 2 32 -15z m-249 -2 c-8
-10 -14 -10 -24 -2 -20 16 -18 19 10 17 19 -2 22 -5 14 -15z m1627 7 c3 -5 1
-10 -4 -10 -6 0 -11 5 -11 10 0 6 2 10 4 10 3 0 8 -4 11 -10z m-410 -18 c-3
-3 -11 0 -18 7 -9 10 -8 11 6 5 10 -3 15 -9 12 -12z m48 -17 c-4 -11 -8 -12
-18 -2 -16 15 -10 28 10 21 7 -3 11 -12 8 -19z m-837 -7 c4 -6 3 -8 -4 -4 -5
3 -12 1 -14 -5 -2 -6 -11 -7 -23 -3 -19 8 -18 9 5 15 14 4 26 7 27 8 1 1 5 -4
9 -11z m649 2 c3 -6 -1 -7 -9 -4 -18 7 -21 14 -7 14 6 0 13 -4 16 -10z m-1242
-18 c-20 -21 -28 -20 -20 3 4 8 13 15 22 15 13 0 12 -3 -2 -18z m1284 2 c-3
-3 -12 -4 -19 -1 -8 3 -5 6 6 6 11 1 17 -2 13 -5z m-23 -39 c-4 -8 -8 -15 -10
-15 -2 0 -4 7 -4 15 0 8 4 15 10 15 5 0 7 -7 4 -15z m-1159 -13 c-6 -4 -10
-14 -10 -22 0 -8 -9 -15 -20 -15 -13 0 -19 -6 -17 -17 2 -12 -2 -16 -13 -12
-11 5 -14 2 -9 -10 7 -17 -3 -21 -24 -8 -9 7 -7 13 9 28 12 10 25 29 30 41 5
14 14 20 23 17 8 -3 17 0 21 6 4 6 10 9 13 5 4 -3 2 -9 -3 -13z m289 10 c3 -5
-1 -9 -9 -9 -8 0 -12 4 -9 9 3 4 7 8 9 8 2 0 6 -4 9 -8z m-154 -12 c0 -5 -4
-10 -10 -10 -5 0 -10 5 -10 10 0 6 5 10 10 10 6 0 10 -4 10 -10z m63 -11 c4
-16 3 -18 -9 -8 -7 6 -11 15 -8 20 8 13 11 11 17 -12z m667 -44 c3 -27 3 -70
0 -95 l-5 -45 -133 -3 -133 -3 2 -222 c2 -123 -1 -228 -5 -235 -5 -8 -50 -12
-153 -12 l-145 0 -115 110 c-64 61 -121 110 -127 109 -30 -4 -37 2 -31 22 5
15 4 19 -4 15 -6 -4 -11 -1 -11 6 0 8 -18 32 -40 53 -39 38 -49 60 -31 67 5 2
11 9 13 17 2 7 34 45 73 85 38 39 68 74 67 79 -1 4 4 7 12 7 7 0 33 11 58 25
113 63 180 73 478 71 l225 -1 5 -50z m467 19 c-9 -9 -28 6 -21 18 4 6 10 6 17
-1 6 -6 8 -13 4 -17z m-167 -9 c0 -3 -9 -5 -20 -5 -11 0 -20 7 -20 15 0 13 4
14 20 5 11 -6 20 -13 20 -15z m432 -29 c9 -22 7 -29 -23 -59 -53 -53 -109
-117 -109 -125 0 -4 -12 -20 -26 -35 -34 -40 -54 -30 -54 29 0 35 -5 50 -22
65 -13 10 -29 18 -36 19 -7 0 -10 5 -7 10 3 6 -4 10 -16 10 -12 0 -38 4 -58 9
-123 32 -121 31 -117 53 3 22 33 40 50 30 14 -8 66 -8 66 1 0 4 7 7 16 7 8 0
13 -4 9 -9 -3 -6 6 -6 25 -1 16 5 32 5 34 2 6 -9 121 -5 176 6 71 15 80 14 92
-12z m348 -21 c-7 -8 -24 -15 -39 -15 l-26 0 25 14 c36 20 56 20 40 1z m-2080
-15 c-20 -13 -33 -13 -25 0 3 6 14 10 23 10 15 0 15 -2 2 -10z m147 -12 c-3
-8 -6 -5 -6 6 -1 11 2 17 5 13 3 -3 4 -12 1 -19z m1981 -6 c6 -18 -15 -14 -22
4 -4 10 -1 14 6 12 6 -2 14 -10 16 -16z m-1068 -7 c0 -8 -4 -15 -9 -15 -13 0
-22 16 -14 24 11 11 23 6 23 -9z m-1120 -40 c13 -16 3 -20 -24 -9 -9 3 -13 10
-10 15 8 13 20 11 34 -6z m-215 -15 c3 -5 2 -10 -4 -10 -5 0 -13 5 -16 10 -3
6 -2 10 4 10 5 0 13 -4 16 -10z m145 0 c0 -5 -4 -10 -10 -10 -5 0 -10 5 -10
10 0 6 5 10 10 10 6 0 10 -4 10 -10z m2562 -10 c44 -13 93 -52 113 -91 19 -36
19 -122 1 -158 -43 -81 -137 -119 -221 -87 -83 32 -123 104 -113 201 3 25 1
49 -6 56 -8 9 -7 10 4 7 8 -3 33 10 55 29 57 49 103 60 167 43z m-1134 -29
l117 3 3 -32 3 -32 -123 -2 c-220 -2 -208 -4 -208 32 0 28 3 30 35 30 25 0 38
5 43 18 6 16 7 16 10 -1 3 -17 14 -18 120 -16z m-1540 -43 c10 -10 17 -10 32
0 29 18 32 15 15 -12 -11 -16 -22 -22 -36 -19 -10 3 -26 0 -34 -7 -26 -21 -41
3 -18 28 22 25 26 25 41 10z m1322 -83 l0 -55 -44 0 c-42 0 -44 1 -48 33 -6
56 0 66 45 70 23 2 43 4 45 5 1 1 2 -23 2 -53z m-1176 36 c3 -5 -1 -14 -8 -20
-12 -10 -13 -8 -9 8 6 23 9 25 17 12z m946 -41 l0 -50 -45 0 -45 0 0 50 0 50
45 0 45 0 0 -50z m118 29 c5 -12 6 -34 4 -50 -4 -27 -7 -29 -53 -29 l-49 0 0
50 0 50 45 0 c37 0 47 -4 53 -21z m228 -1 c-3 -13 -6 -35 -6 -50 0 -26 -3 -28
-45 -28 l-45 0 0 50 0 50 51 0 c48 0 51 -1 45 -22z m115 18 c2 -3 3 -25 1 -51
l-4 -46 -47 3 c-44 3 -46 4 -49 36 -5 53 2 62 51 62 24 0 46 -2 48 -4z m107
-48 l3 -48 -45 0 -46 0 0 51 0 50 43 -3 42 -3 3 -47z m-1618 22 c0 -5 -4 -12
-10 -15 -5 -3 -10 -4 -10 -1 0 2 -3 12 -6 20 -5 12 -2 15 10 10 9 -3 16 -10
16 -14z m2352 -18 c-15 -106 101 -242 207 -242 30 0 33 -2 21 -14 -21 -19
-642 -434 -725 -485 -84 -50 -121 -53 -167 -12 -28 25 -33 36 -33 76 0 43 4
50 55 98 72 67 487 464 569 544 36 35 68 63 71 63 4 0 5 -13 2 -28z m-2444
-67 c12 -14 22 -33 22 -43 0 -10 5 -23 12 -30 9 -9 8 -12 -6 -12 -9 0 -14 -4
-11 -10 3 -5 -2 -10 -12 -10 -10 0 -24 9 -30 19 -10 17 -9 20 14 26 28 7 22
20 -10 20 -11 0 -22 7 -24 15 -4 13 -3 13 6 0 5 -8 13 -11 18 -7 8 9 -15 27
-34 27 -7 0 -13 -9 -13 -20 0 -11 -4 -20 -10 -20 -5 0 -10 4 -10 9 0 5 -3 17
-7 27 -4 12 -3 15 5 10 7 -4 22 0 34 8 29 21 31 20 56 -9z m409 9 c-3 -3 -12
-4 -19 -1 -8 3 -5 6 6 6 11 1 17 -2 13 -5z m1303 -129 l0 -115 -165 0 c-114 0
-165 3 -165 11 0 6 -7 9 -15 5 -8 -3 -15 -1 -15 4 0 6 6 10 14 10 11 0 15 19
15 88 0 48 0 93 1 100 0 9 40 12 165 12 l165 0 0 -115z m1195 15 c3 -5 1 -10
-4 -10 -6 0 -11 5 -11 10 0 6 2 10 4 10 3 0 8 -4 11 -10z m-2670 -64 c20 8 19
-10 0 -26 -19 -16 -22 -13 -30 25 -5 24 -4 27 5 13 6 -9 17 -15 25 -12z m1627
-238 c-161 -158 -174 -184 -135 -265 22 -47 66 -73 124 -73 48 0 50 1 232 122
l57 39 0 -164 0 -164 -27 4 c-120 18 -654 136 -705 155 l-28 10 0 234 0 234
308 0 307 0 -133 -132z m-942 62 c0 -5 -2 -10 -4 -10 -3 0 -8 5 -11 10 -3 6
-1 10 4 10 6 0 11 -4 11 -10z m1530 -212 c0 -5 -9 -8 -21 -8 -14 0 -19 -5 -16
-14 3 -8 -1 -17 -9 -20 -12 -5 -12 -8 3 -24 10 -10 22 -17 27 -14 5 3 4 -4 -2
-14 -6 -10 -7 -27 -2 -39 7 -19 5 -21 -21 -17 -27 4 -29 2 -29 -32 0 -24 5
-36 14 -36 7 0 19 -7 26 -15 16 -20 34 -19 26 1 -3 8 -2 12 4 9 17 -10 11 -34
-10 -45 -11 -6 -21 -7 -21 -3 -1 4 -2 13 -4 18 -1 6 -3 14 -3 19 -1 5 -9 3
-17 -4 -8 -7 -12 -17 -9 -22 3 -5 -2 -18 -11 -28 -9 -10 -15 -22 -13 -27 2 -4
-7 -19 -20 -33 -24 -24 -24 -25 -18 -2 5 15 3 22 -6 22 -28 1 -107 93 -90 104
5 3 8 31 8 63 -1 56 -2 58 -28 55 -23 -2 -26 0 -21 20 4 13 11 26 17 30 7 5 4
8 -7 8 -10 0 -15 5 -12 10 10 16 35 12 35 -6 0 -8 5 -12 11 -9 7 5 5 13 -5 24
-9 10 -16 23 -16 29 0 14 36 25 52 16 8 -5 9 -2 5 9 -7 19 9 23 17 5 3 -10 8
-9 18 2 7 9 23 16 36 17 49 2 51 3 45 21 -4 9 10 -1 30 -23 20 -22 37 -43 37
-47z m423 33 c-8 -10 -35 28 -28 39 5 8 11 4 19 -12 7 -12 11 -25 9 -27z
m-423 35 c0 -2 -8 -10 -17 -17 -16 -13 -17 -12 -4 4 13 16 21 21 21 13z m230
-6 c0 -5 -2 -10 -4 -10 -3 0 -8 5 -11 10 -3 6 -1 10 4 10 6 0 11 -4 11 -10z
m366 -118 c-4 -3 -14 2 -24 12 -16 18 -16 18 6 6 13 -6 21 -14 18 -18z m-324
-84 c-10 -10 -10 -8 -2 37 1 6 4 2 7 -9 3 -10 0 -23 -5 -28z m418 22 c9 -16 8
-18 -5 -14 -8 4 -15 12 -15 20 0 20 7 17 20 -6z m-440 -9 c0 -6 -5 -13 -11
-17 -8 -4 -8 -9 -1 -13 6 -4 -7 -6 -28 -6 -21 0 -36 3 -34 7 3 5 14 8 25 8 10
0 19 7 19 15 0 8 7 15 15 15 8 0 15 -4 15 -9z m103 -17 c-5 -13 1 -15 39 -9
35 5 46 4 51 -8 4 -10 -2 -16 -18 -20 -14 -2 -26 1 -28 7 -2 7 -10 4 -21 -7
-20 -20 -32 -22 -41 -6 -9 13 3 59 15 59 5 0 7 -7 3 -16z m157 -4 c0 5 5 10
10 10 6 0 10 -7 10 -15 0 -11 -8 -14 -32 -11 -18 3 -37 5 -43 5 -5 1 -3 5 4
10 9 6 22 6 33 0 12 -6 18 -6 18 1z m275 0 c3 -5 1 -10 -4 -10 -6 0 -11 5 -11
10 0 6 2 10 4 10 3 0 8 -4 11 -10z m-519 -45 c-3 -9 -11 -13 -16 -10 -8 5 -7
11 1 21 14 18 24 11 15 -11z m418 -14 c-9 -10 -26 18 -18 30 5 9 9 8 14 -7 4
-10 6 -21 4 -23z m-379 7 c-13 -8 -15 -18 -11 -47 5 -24 4 -31 -3 -22 -5 8
-16 11 -27 7 -17 -6 -34 8 -34 29 0 6 4 4 9 -4 6 -9 16 -11 27 -7 15 6 16 9 5
15 -11 7 -9 13 8 30 12 12 27 19 33 15 7 -4 5 -10 -7 -16z m-82 5 c9 -15 -28
-42 -43 -33 -10 6 -11 10 -3 10 7 0 10 7 7 15 -4 10 0 15 14 15 12 0 23 -3 25
-7z m437 -13 c0 -5 -4 -10 -10 -10 -5 0 -10 5 -10 10 0 6 5 10 10 10 6 0 10
-4 10 -10z m-56 -25 c-17 -27 -12 -45 14 -46 14 0 13 -2 -3 -8 -32 -13 -58 2
-61 37 -3 25 0 31 19 35 47 9 48 8 31 -18z m-544 -50 c0 -8 -6 -15 -14 -15 -8
0 -13 -10 -13 -25 0 -14 1 -25 4 -25 4 0 25 16 55 44 19 17 21 18 15 2 -5 -13
-1 -19 13 -23 18 -5 19 -8 7 -22 -32 -37 -24 -76 12 -64 9 4 13 3 9 -2 -4 -4
-22 -8 -40 -9 -34 -1 -65 25 -53 44 3 6 -1 10 -9 10 -9 0 -16 -5 -16 -11 0 -6
-6 -9 -14 -6 -7 3 -18 1 -24 -5 -6 -6 -15 -7 -21 -4 -17 11 -13 26 4 20 20 -8
19 10 -1 31 -16 15 -16 18 0 33 15 15 16 14 16 -11 0 -15 2 -27 4 -27 2 0 11
-2 19 -6 11 -4 13 3 10 35 -3 31 0 40 14 44 10 3 19 5 21 6 1 0 2 -6 2 -14z
m480 0 c0 -8 -7 -15 -15 -15 -9 0 -12 6 -9 15 4 8 10 15 15 15 5 0 9 -7 9 -15z
m-77 -12 c-7 -2 -19 -2 -25 0 -7 3 -2 5 12 5 14 0 19 -2 13 -5z m-2473 -138
c0 -8 -4 -15 -9 -15 -13 0 -22 16 -14 24 11 11 23 6 23 -9z m-60 -25 c0 -13
-5 -18 -15 -14 -16 7 -19 17 -8 27 12 13 23 7 23 -13z m2284 -39 c11 -4 15
-10 9 -14 -5 -3 -19 0 -29 8 -20 15 -11 18 20 6z m-2263 -26 c1 -17 -18 -17
-25 0 -4 11 -1 15 10 13 8 -2 15 -7 15 -13z m-196 -5 c3 -5 1 -10 -4 -10 -6 0
-11 5 -11 10 0 6 2 10 4 10 3 0 8 -4 11 -10z m53 -66 c1 -14 -2 -23 -8 -19
-12 7 -14 45 -2 45 4 0 9 -11 10 -26z m132 5 c0 -5 4 -8 8 -5 5 3 20 -3 35
-12 19 -13 23 -21 16 -32 -7 -13 -10 -13 -18 -1 -6 10 -13 11 -29 2 -26 -14
-32 -14 -32 0 0 5 5 7 10 4 6 -3 10 1 10 9 0 8 -6 13 -12 11 -17 -6 -45 12
-35 22 5 4 12 1 17 -7 9 -14 14 -7 11 13 0 4 4 7 9 7 6 0 10 -5 10 -11z m-100
-19 c0 -5 -2 -10 -4 -10 -3 0 -8 5 -11 10 -3 6 -1 10 4 10 6 0 11 -4 11 -10z
m310 -164 c0 -2 -7 -7 -16 -10 -8 -3 -12 -2 -9 4 6 10 25 14 25 6z m-50 -20
c0 -2 -13 -6 -29 -8 -17 -2 -28 -1 -25 4 5 8 54 12 54 4z m-120 -24 c0 -4 -12
-9 -27 -10 -22 -1 -24 0 -13 8 18 12 40 13 40 2z m280 -367 c13 8 13 -5 0 -25
-8 -13 -10 -12 -10 3 0 9 -4 17 -10 17 -5 0 -10 10 -9 23 l0 22 10 -23 c5 -13
13 -20 19 -17z m-19 -60 c5 -7 1 -11 -12 -11 -20 0 -24 13 -12 43 7 17 8 17
11 -2 2 -11 8 -25 13 -30z m94 15 c3 -5 1 -10 -4 -10 -6 0 -11 5 -11 10 0 6 2
10 4 10 3 0 8 -4 11 -10z m-56 -61 c6 10 10 9 15 -5 3 -9 4 -19 1 -22 -3 -3
-5 0 -5 8 0 9 -4 9 -12 2 -10 -7 -18 -3 -32 16 l-20 27 23 -20 c17 -15 24 -16
30 -6z m1426 -9 c3 -5 1 -10 -4 -10 -6 0 -11 5 -11 10 0 6 2 10 4 10 3 0 8 -4
11 -10z m-1486 -69 c-13 -4 -15 -2 -23 29 l-7 25 20 -25 c11 -14 15 -27 10
-29z m30 6 c0 -21 -1 -21 -9 -2 -12 28 -12 37 0 30 6 -3 10 -16 9 -28z m91 12
l25 -20 -25 12 c-14 7 -28 12 -32 11 -5 -1 -8 3 -8 8 0 15 12 12 40 -11z m50
-29 c0 -5 -2 -10 -4 -10 -3 0 -8 5 -11 10 -3 6 -1 10 4 10 6 0 11 -4 11 -10z
m140 -20 c0 -11 -2 -20 -4 -20 -2 0 -6 9 -9 20 -3 11 -1 20 4 20 5 0 9 -9 9
-20z m-408 -20 c-16 -19 -17 -19 -23 -3 -4 12 0 20 10 24 25 10 32 0 13 -21z
m312 1 c-2 -3 -12 3 -22 13 -16 17 -16 18 5 5 12 -7 20 -15 17 -18z m-244 9
c8 -5 11 -10 5 -10 -5 0 -17 5 -25 10 -8 5 -10 10 -5 10 6 0 17 -5 25 -10z
m129 -4 c9 -10 8 -15 -4 -20 -10 -4 -15 1 -15 14 0 24 4 25 19 6z m36 4 c3 -5
1 -10 -4 -10 -6 0 -11 5 -11 10 0 6 2 10 4 10 3 0 8 -4 11 -10z m-105 -30 c0
-5 -7 -7 -15 -4 -8 4 -15 8 -15 10 0 2 7 4 15 4 8 0 15 -4 15 -10z m130 -11
c0 -5 5 -9 11 -9 6 0 9 6 6 13 -4 10 3 13 26 11 54 -5 77 -15 77 -35 0 -19 -9
-23 -45 -19 -20 2 -20 2 -2 -18 11 -12 16 -26 12 -32 -3 -5 10 -3 30 7 21 10
34 22 31 30 -6 15 3 17 22 5 9 -6 2 -14 -23 -28 -19 -10 -35 -25 -35 -32 0
-33 -48 19 -66 71 -4 9 -10 17 -15 17 -5 0 -9 -8 -9 -17 0 -11 -3 -14 -8 -8
-9 14 -55 17 -47 4 10 -15 -25 -10 -41 6 -17 17 -9 39 12 31 8 -3 13 -2 13 2
-3 16 2 19 26 14 14 -2 25 -8 25 -13z m260 11 c0 -5 -4 -10 -10 -10 -5 0 -10
5 -10 10 0 6 5 10 10 10 6 0 10 -4 10 -10z m-80 -14 c0 -8 -4 -18 -10 -21 -5
-3 -10 0 -10 9 0 8 -6 17 -12 19 -7 3 -3 6 10 6 13 1 22 -5 22 -13z m297 -12
c-3 -3 -12 -4 -19 -1 -8 3 -5 6 6 6 11 1 17 -2 13 -5z m-747 -60 c0 -8 -5 -12
-10 -9 -6 4 -8 11 -5 16 9 14 15 11 15 -7z m207 -26 c-3 -8 -6 -5 -6 6 -1 11
2 17 5 13 3 -3 4 -12 1 -19z m448 3 c3 -5 2 -12 -3 -15 -5 -3 -9 1 -9 9 0 17
3 19 12 6z m-691 -10 c7 -11 -38 -61 -56 -62 -7 0 -4 -4 7 -9 16 -7 17 -9 3
-9 -22 -1 -29 11 -17 29 5 8 9 12 9 8 0 -5 10 2 23 15 12 12 21 25 20 30 -4
10 5 9 11 -2z m489 -24 c-10 -48 -11 -48 -33 -35 -26 16 -25 22 5 38 13 7 22
18 18 23 -3 6 -1 7 5 4 5 -4 8 -17 5 -30z m-253 13 c8 -5 12 -11 10 -14 -3 -2
-14 2 -24 10 -22 15 -10 19 14 4z m1300 0 c0 -5 -9 -10 -21 -10 -11 0 -17 -4
-14 -10 3 -5 1 -10 -4 -10 -13 0 -13 3 -5 24 7 17 44 22 44 6z m-1540 -40 c0
-5 -5 -10 -11 -10 -5 0 -7 5 -4 10 3 6 8 10 11 10 2 0 4 -4 4 -10z m410 -40
c-24 -15 -36 -11 -14 4 10 8 21 12 24 10 2 -3 -2 -9 -10 -14z m-86 1 c4 -5 2
-20 -3 -33 -7 -17 -10 -18 -10 -5 -1 10 -9 17 -21 17 -22 0 -27 15 -7 23 20 9
35 8 41 -2z m376 -1 c0 -5 -2 -10 -4 -10 -3 0 -8 5 -11 10 -3 6 -1 10 4 10 6
0 11 -4 11 -10z m-340 -4 c0 -3 -4 -8 -10 -11 -5 -3 -10 -1 -10 4 0 6 5 11 10
11 6 0 10 -2 10 -4z m301 -23 c13 -16 12 -17 -3 -4 -10 7 -18 15 -18 17 0 8 8
3 21 -13z m-466 -13 c-3 -5 -11 -10 -16 -10 -6 0 -7 5 -4 10 3 6 11 10 16 10
6 0 7 -4 4 -10z m569 -14 c-3 -9 -10 -16 -15 -16 -5 0 -4 9 3 20 14 22 21 20
12 -4z m-951 0 c3 -8 -2 -20 -11 -28 -15 -12 -16 -11 -3 5 9 11 10 17 2 17 -6
0 -11 5 -11 10 0 15 17 12 23 -4z m692 -16 c3 -5 1 -10 -4 -10 -6 0 -11 5 -11
10 0 6 2 10 4 10 3 0 8 -4 11 -10z m-155 -20 c0 -14 -40 -32 -56 -26 -15 6 -8
36 8 36 6 0 8 -7 4 -15 -3 -8 -2 -15 3 -15 5 0 11 9 14 21 5 20 27 19 27 -1z
m83 -5 c-3 -8 -12 -15 -20 -15 -13 0 -13 -3 -3 -15 18 -21 -13 -21 -34 1 -22
21 -20 37 4 31 10 -3 24 1 31 9 14 17 30 9 22 -11z m117 11 c0 -11 -19 -15
-25 -6 -3 5 1 10 9 10 9 0 16 -2 16 -4z m-700 -50 c-4 -12 -16 -22 -26 -24
-18 -3 -18 -2 0 12 10 8 15 19 11 25 -3 6 -3 16 1 22 11 18 23 -11 14 -35z
m71 17 c-12 -20 -14 -14 -5 12 4 9 9 14 11 11 3 -2 0 -13 -6 -23z m439 -13 c0
-19 -5 -24 -23 -25 -11 -1 -23 -8 -28 -16 -5 -8 -9 -10 -9 -5 0 10 41 53 53
55 4 1 7 -3 7 -9z m254 -13 c-3 -8 -12 -18 -20 -21 -11 -4 -10 0 3 18 20 26
27 28 17 3z m146 8 c0 -2 -9 -3 -19 -2 -11 0 -18 5 -15 9 4 6 34 0 34 -7z
m685 6 c3 -5 2 -12 -3 -15 -5 -3 -9 1 -9 9 0 17 3 19 12 6z m-1415 -31 c0 -5
-4 -10 -10 -10 -5 0 -10 5 -10 10 0 6 5 10 10 10 6 0 10 -4 10 -10z m135 0
c-3 -5 -14 -10 -23 -9 -14 0 -13 2 3 9 27 11 27 11 20 0z m115 -10 c-8 -5 -22
-9 -30 -9 -10 0 -8 3 5 9 27 12 43 12 25 0z m510 0 c0 -5 -2 -10 -4 -10 -3 0
-8 5 -11 10 -3 6 -1 10 4 10 6 0 11 -4 11 -10z m-400 -10 c-8 -5 -19 -10 -25
-10 -5 0 -3 5 5 10 8 5 20 10 25 10 6 0 3 -5 -5 -10z m164 -5 c-4 -8 -10 -12
-15 -9 -14 8 -10 24 6 24 9 0 12 -6 9 -15z m846 5 c0 -5 -5 -10 -11 -10 -5 0
-7 5 -4 10 3 6 8 10 11 10 2 0 4 -4 4 -10z m-1053 -16 c-3 -3 -12 -4 -19 -1
-8 3 -5 6 6 6 11 1 17 -2 13 -5z m83 -4 c0 -5 -6 -10 -14 -10 -8 0 -18 5 -21
10 -3 6 3 10 14 10 12 0 21 -4 21 -10z m75 -8 c-3 -3 -11 0 -18 7 -9 10 -8 11
6 5 10 -3 15 -9 12 -12z m210 0 c-3 -3 -11 0 -18 7 -9 10 -8 11 6 5 10 -3 15
-9 12 -12z m-447 -7 c3 -3 -4 -5 -16 -5 -12 0 -25 0 -29 -1 -4 0 -9 5 -11 11
-4 11 44 7 56 -5z m-118 -8 c0 -14 -65 -39 -74 -29 -13 12 -4 22 27 31 45 13
47 13 47 -2z m150 -39 c0 -13 -23 -5 -28 10 -2 7 2 10 12 6 9 -3 16 -11 16
-16z m537 -10 c-3 -7 -5 -2 -5 12 0 14 2 19 5 13 2 -7 2 -19 0 -25z m-833 -19
c23 -34 30 -39 43 -28 12 11 17 10 28 -4 7 -9 26 -20 44 -23 30 -6 38 -14 24
-27 -3 -4 -14 0 -24 9 -10 9 -25 14 -34 10 -9 -3 -14 -2 -11 3 3 5 -1 14 -9
21 -10 9 -15 9 -15 1 0 -19 -17 -12 -48 19 -17 17 -28 30 -25 30 3 0 0 7 -7
15 -7 8 -8 15 -3 15 6 0 22 -18 37 -41z m501 31 c3 -5 1 -10 -4 -10 -6 0 -11
5 -11 10 0 6 2 10 4 10 3 0 8 -4 11 -10z m290 -8 c-3 -3 -11 0 -18 7 -9 10 -8
11 6 5 10 -3 15 -9 12 -12z m-570 -2 c3 -5 -1 -10 -10 -10 -9 0 -13 5 -10 10
3 6 8 10 10 10 2 0 7 -4 10 -10z m-8 -26 c21 -2 42 -3 47 -3 5 -1 3 -8 -4 -16
-7 -8 -17 -12 -24 -8 -6 4 -13 8 -16 9 -25 5 -60 26 -60 36 0 10 3 9 9 -1 5
-8 26 -15 48 -17z m333 -18 c0 -28 -13 -11 -16 21 -2 21 -1 24 6 13 5 -8 10
-24 10 -34z m215 34 c3 -5 1 -10 -4 -10 -6 0 -11 5 -11 10 0 6 2 10 4 10 3 0
8 -4 11 -10z m-400 -10 c-3 -5 -10 -10 -16 -10 -5 0 -9 5 -9 10 0 6 7 10 16
10 8 0 12 -4 9 -10z m135 -25 c7 -9 8 -15 2 -15 -5 0 -12 7 -16 15 -3 8 -4 15
-2 15 2 0 9 -7 16 -15z m-195 -5 c3 -5 1 -10 -4 -10 -6 0 -11 5 -11 10 0 6 2
10 4 10 3 0 8 -4 11 -10z m555 -6 c0 -8 -4 -12 -10 -9 -5 3 -10 1 -10 -4 0 -6
-11 -11 -25 -11 -33 0 -32 13 3 27 38 15 42 15 42 -3z m-860 -4 c0 -5 -5 -10
-11 -10 -5 0 -7 5 -4 10 3 6 8 10 11 10 2 0 4 -4 4 -10z m165 0 c3 -5 1 -10
-4 -10 -6 0 -11 5 -11 10 0 6 2 10 4 10 3 0 8 -4 11 -10z m290 -10 c-3 -5 -10
-10 -16 -10 -5 0 -9 5 -9 10 0 6 7 10 16 10 8 0 12 -4 9 -10z m-65 -10 c8 -5
11 -10 5 -10 -5 0 -17 5 -25 10 -8 5 -10 10 -5 10 6 0 17 -5 25 -10z m-385
-29 c-6 -5 -25 10 -25 20 0 5 6 4 14 -3 8 -7 12 -15 11 -17z m-95 -7 c0 -12
-40 -47 -47 -40 -7 7 9 36 17 31 5 -3 6 4 3 15 -4 16 -2 19 11 14 9 -3 16 -12
16 -20z m530 10 c0 -8 -5 -12 -10 -9 -6 4 -8 11 -5 16 9 14 15 11 15 -7z
m-229 -4 c10 0 19 -5 19 -10 0 -12 -50 -2 -65 13 -7 7 -4 8 8 3 10 -3 27 -6
38 -6z m124 -20 c3 -5 -1 -10 -9 -10 -9 0 -16 5 -16 10 0 6 4 10 9 10 6 0 13
-4 16 -10z m-254 -20 c6 0 7 5 3 12 -4 7 -3 8 4 4 18 -11 14 -33 -7 -39 -15
-3 -18 1 -18 22 0 14 2 20 4 14 3 -7 9 -13 14 -13z m182 -5 c-9 -15 -11 -15
-23 0 -11 13 -10 15 4 9 10 -4 16 -1 16 7 0 7 3 10 6 6 3 -3 2 -13 -3 -22z
m196 3 c27 -8 -11 -16 -39 -7 -16 4 -19 7 -7 8 9 1 17 7 17 14 0 8 3 9 8 1 4
-6 14 -13 21 -16z m267 -10 c3 6 13 12 22 12 15 -1 15 -2 -1 -11 -9 -6 -15
-15 -11 -21 4 -6 -1 -6 -14 1 -26 14 -35 14 -27 1 11 -18 -14 -11 -34 9 -20
20 -20 20 7 23 15 2 33 -4 40 -12 10 -11 15 -12 18 -2z m-576 2 c0 -5 -4 -10
-9 -10 -6 0 -13 5 -16 10 -3 6 1 10 9 10 9 0 16 -4 16 -10z m665 -10 c3 -5 2
-10 -4 -10 -5 0 -13 5 -16 10 -3 6 -2 10 4 10 5 0 13 -4 16 -10z m-985 -10 c0
-5 -2 -10 -4 -10 -3 0 -8 5 -11 10 -3 6 -1 10 4 10 6 0 11 -4 11 -10z m143
-27 c-3 -7 -10 -10 -15 -7 -6 4 -14 0 -19 -7 -7 -11 -9 -10 -9 4 0 9 4 17 10
17 5 0 7 7 3 16 -5 14 -3 14 15 3 11 -7 18 -18 15 -26z m297 -5 c0 -6 -7 -5
-15 2 -8 7 -15 17 -15 22 0 6 7 5 15 -2 8 -7 15 -17 15 -22z m-167 5 c-6 -16
-11 -16 -28 1 -12 12 -11 14 9 12 14 0 22 -6 19 -13z m672 7 c3 -6 -1 -7 -9
-4 -18 7 -21 14 -7 14 6 0 13 -4 16 -10z m-618 -6 c-3 -3 -12 -4 -19 -1 -8 3
-5 6 6 6 11 1 17 -2 13 -5z m679 -21 c-3 -4 2 -16 11 -27 17 -20 17 -20 -2 -6
-43 31 -62 70 -24 50 11 -7 18 -14 15 -17z m-786 7 c0 -5 -4 -10 -10 -10 -5 0
-10 5 -10 10 0 6 5 10 10 10 6 0 10 -4 10 -10z m650 6 c0 -3 -4 -8 -10 -11 -5
-3 -10 -1 -10 4 0 6 5 11 10 11 6 0 10 -2 10 -4z m100 -41 c11 -13 10 -14 -4
-9 -12 4 -16 0 -16 -15 0 -15 5 -21 16 -19 10 2 19 -2 21 -9 3 -7 -3 -10 -15
-6 -11 2 -38 -8 -65 -27 -43 -29 -59 -50 -38 -50 4 0 25 -11 45 -25 26 -18 44
-23 66 -19 26 6 29 4 28 -17 -1 -13 -6 -29 -10 -36 -10 -13 -68 -15 -68 -2 0
4 -9 11 -20 14 -33 10 -81 67 -69 81 7 8 6 15 -2 19 -6 4 -15 1 -20 -6 -4 -7
-11 -10 -16 -6 -4 5 -1 12 7 18 13 8 13 10 1 18 -12 8 -7 14 22 31 20 12 35
26 32 30 -3 5 -1 11 5 15 5 3 10 1 10 -6 0 -10 3 -10 12 -1 8 8 17 8 30 1 10
-5 18 -6 17 -2 -2 8 11 43 16 43 1 0 8 -7 15 -15z m-192 -16 c-10 -5 -21 -16
-26 -24 -7 -13 -10 -13 -27 0 -20 16 -20 16 1 10 13 -3 26 1 34 10 7 8 18 15
24 15 6 0 3 -5 -6 -11z m687 -19 c3 -5 2 -10 -4 -10 -5 0 -13 5 -16 10 -3 6
-2 10 4 10 5 0 13 -4 16 -10z m-685 -41 c0 -5 -4 -9 -10 -9 -5 0 -10 7 -10 16
0 8 5 12 10 9 6 -3 10 -10 10 -16z m250 1 c0 -5 -4 -10 -10 -10 -5 0 -10 5
-10 10 0 6 5 10 10 10 6 0 10 -4 10 -10z m-310 -39 c0 -5 -9 -11 -21 -14 -16
-4 -18 -3 -8 9 13 16 29 19 29 5z m270 -5 c6 -8 18 -12 26 -9 10 4 12 0 8 -11
-4 -10 -13 -15 -21 -12 -8 3 -18 6 -23 6 -4 0 -10 9 -13 20 -6 23 5 26 23 6z
m-210 -18 c0 -13 -23 -5 -28 10 -2 7 2 10 12 6 9 -3 16 -11 16 -16z m30 -28
c12 -8 11 -10 -7 -10 -13 0 -23 5 -23 10 0 13 11 13 30 0z m-75 -20 c3 -5 1
-10 -4 -10 -6 0 -11 5 -11 10 0 6 2 10 4 10 3 0 8 -4 11 -10z m255 -90 c-14
-9 -7 -14 13 -11 4 0 7 -3 7 -9 0 -13 -11 -12 -32 4 -23 17 -23 21 4 23 18 2
20 0 8 -7z m-265 -20 c-3 -5 -10 -10 -16 -10 -5 0 -9 5 -9 10 0 6 7 10 16 10
8 0 12 -4 9 -10z m80 -10 c-3 -5 -11 -10 -16 -10 -6 0 -7 5 -4 10 3 6 11 10
16 10 6 0 7 -4 4 -10z m190 -10 c3 -5 1 -10 -5 -10 -6 0 -8 -4 -5 -10 3 -5 4
-10 1 -10 -3 0 -10 9 -16 20 -8 16 -8 20 4 20 8 0 18 -4 21 -10z m-321 -36 c7
-19 2 -18 -19 6 -16 17 -16 20 -3 15 9 -4 19 -13 22 -21z m56 5 c0 -6 -4 -7
-10 -4 -5 3 -10 11 -10 16 0 6 5 7 10 4 6 -3 10 -11 10 -16z m197 -133 c-6 -8
-19 -11 -27 -8 -12 5 -12 7 3 10 9 2 17 8 17 13 0 6 4 7 10 4 6 -4 5 -11 -3
-19z m173 -57 c0 -6 -4 -7 -10 -4 -5 3 -10 11 -10 16 0 6 5 7 10 4 6 -3 10
-11 10 -16z m140 -29 c0 -5 -5 -10 -11 -10 -5 0 -7 5 -4 10 3 6 8 10 11 10 2
0 4 -4 4 -10z"/>
<path d="M2915 3980 c-3 -5 1 -10 10 -10 9 0 13 5 10 10 -3 6 -8 10 -10 10 -2
0 -7 -4 -10 -10z"/>
<path d="M3726 2754 c-4 -11 -1 -14 11 -12 9 2 18 9 21 16 6 18 -25 15 -32 -4z"/>
<path d="M2096 1672 c-3 -5 8 -9 25 -9 19 0 25 3 17 9 -17 10 -35 10 -42 0z"/>
<path d="M2470 764 c0 -8 14 -12 40 -11 52 3 52 22 0 22 -25 1 -40 -4 -40 -11z"/>
<path d="M1115 3880 c-3 -5 -1 -10 4 -10 6 0 11 5 11 10 0 6 -2 10 -4 10 -3 0
-8 -4 -11 -10z"/>
<path d="M1133 3846 c1 -11 9 -21 17 -23 10 -3 11 -2 4 4 -6 4 -14 15 -17 23
-5 11 -6 9 -4 -4z"/>
<path d="M1099 3827 c6 -8 7 -18 3 -22 -4 -5 -1 -5 6 -1 10 6 10 11 1 22 -6 8
-14 14 -16 14 -3 0 0 -6 6 -13z"/>
<path d="M4440 3276 c0 -2 8 -10 18 -17 15 -13 16 -12 3 4 -13 16 -21 21 -21
13z"/>
<path d="M1446 3214 c-9 -8 -16 -13 -16 -10 0 3 -19 -2 -42 -10 -24 -8 -78
-18 -120 -21 -43 -3 -75 -9 -73 -13 3 -5 -12 -6 -33 -3 -20 3 -51 6 -69 7 -17
0 -35 4 -39 9 -15 14 -34 7 -34 -14 0 -14 5 -19 13 -16 8 3 20 1 28 -4 11 -7
10 -9 -4 -9 -10 0 -15 -4 -12 -10 3 -5 1 -19 -5 -30 -9 -17 -8 -20 9 -20 15 0
18 5 14 23 -5 17 -3 19 7 11 7 -7 9 -21 6 -32 -6 -17 -11 -19 -36 -12 -27 8
-28 7 -21 -13 6 -15 4 -26 -5 -35 -19 -17 -24 -15 -24 9 0 13 4 18 12 13 7 -4
8 -3 4 4 -9 14 -36 16 -36 3 0 -5 5 -22 10 -37 8 -21 7 -31 -7 -46 -16 -18
-17 -18 -37 2 -12 11 -32 29 -46 41 -18 14 -19 18 -5 11 19 -9 63 -7 74 4 9 9
-16 39 -32 38 -8 -1 -20 9 -26 22 -7 16 -7 24 0 24 6 0 7 6 3 13 -4 7 -3 9 2
4 9 -8 10 -12 13 -38 1 -8 6 -8 16 1 9 7 27 10 45 6 21 -4 30 -2 30 7 0 19
-29 57 -44 57 -7 0 -21 7 -32 16 -18 14 -18 15 6 9 20 -5 22 -4 9 4 -17 11
-142 8 -171 -4 -13 -5 -16 -14 -12 -30 7 -30 -12 -41 -21 -12 -6 18 -9 15 -15
-23 -5 -25 -9 -60 -9 -77 -1 -29 2 -33 26 -33 l27 0 -23 -21 c-19 -18 -25 -19
-32 -8 -6 9 -8 -1 -7 -28 1 -24 5 -43 10 -43 5 0 1 -11 -8 -25 -14 -21 -14
-24 -2 -20 9 3 21 17 28 31 15 28 23 30 40 9 19 -23 43 -19 35 5 -4 11 -2 20
4 20 6 0 11 -7 11 -15 0 -22 17 -18 23 5 3 11 10 20 16 20 6 0 7 -8 4 -17 -5
-13 -2 -15 11 -10 10 4 23 4 29 0 7 -4 35 -8 62 -10 28 -1 102 -7 165 -12 78
-8 139 -8 190 -2 41 6 79 11 84 11 4 0 6 6 3 14 -3 8 -2 16 2 18 7 3 52 308
45 308 -1 0 -10 -7 -18 -16z m-231 -174 c-3 -4 5 -11 18 -15 19 -6 20 -8 4
-12 -11 -3 -24 3 -32 14 -19 24 -19 34 0 27 8 -4 13 -10 10 -14z m-125 -30 c0
-5 -7 -10 -16 -10 -8 0 -12 5 -9 10 3 6 10 10 16 10 5 0 9 -4 9 -10z m151 -72
c-12 -11 -13 -10 -7 6 4 13 2 17 -8 13 -10 -4 -13 -1 -9 9 5 14 7 14 21 0 14
-13 14 -18 3 -28z m-141 22 c0 -5 -8 -10 -17 -10 -15 0 -16 2 -3 10 19 12 20
12 20 0z m-255 -10 c3 -6 -4 -14 -16 -19 -26 -9 -61 -3 -54 10 3 4 12 6 19 3
8 -3 17 -1 21 5 8 14 22 14 30 1z m345 -10 c0 -5 -2 -10 -4 -10 -3 0 -8 5 -11
10 -3 6 -1 10 4 10 6 0 11 -4 11 -10z m-170 -25 c0 -8 -2 -15 -4 -15 -2 0 -6
7 -10 15 -3 8 -1 15 4 15 6 0 10 -7 10 -15z m57 8 c-9 -2 -15 -9 -12 -14 4 -5
1 -9 -4 -9 -12 0 -14 13 -4 23 3 4 13 6 22 6 13 -1 12 -2 -2 -6z m213 -8 c0
-8 -4 -15 -10 -15 -5 0 -10 4 -10 10 0 5 -8 7 -17 4 -15 -5 -16 -4 -3 5 21 15
40 13 40 -4z m40 -1 c0 -2 -7 -4 -15 -4 -8 0 -15 4 -15 10 0 5 7 7 15 4 8 -4
15 -8 15 -10z"/>
<path d="M4405 2863 c-23 -6 -45 -22 -45 -33 0 -13 59 12 64 27 3 7 4 12 3 12
-1 -1 -11 -4 -22 -6z"/>
<path d="M1318 2670 c19 -33 27 -37 35 -16 3 8 -4 21 -18 30 -34 22 -36 20
-17 -14z"/>
<path d="M1507 1277 c-6 -18 3 -38 15 -31 5 3 12 -3 15 -15 5 -19 43 -31 43
-15 0 15 -68 73 -73 61z"/>
<path d="M1392 1163 c-19 -7 -83 -154 -76 -175 3 -10 10 -18 15 -18 5 0 9 -5
9 -12 0 -6 -8 -3 -20 7 -19 17 -20 17 -30 -9 -5 -15 -10 -29 -10 -32 0 -2 42
-4 93 -4 96 1 133 13 121 43 -3 8 -1 18 5 22 16 9 14 25 -3 25 -20 0 -27 52
-10 71 12 14 11 19 -11 39 -14 13 -25 20 -25 15 0 -4 -8 2 -19 13 -10 12 -20
22 -22 21 -2 0 -10 -3 -17 -6z m4 -124 c19 -22 19 -22 -3 -8 -13 8 -23 17 -23
21 0 12 6 9 26 -13z m74 -72 c0 -5 -7 -4 -15 3 -12 10 -18 10 -30 0 -21 -17
-19 4 2 25 16 16 17 16 30 -1 7 -10 13 -22 13 -27z"/>
<path d="M1775 931 c-5 -9 41 -8 50 0 3 4 -6 7 -20 7 -14 0 -27 -4 -30 -7z"/>
<path d="M2967 894 c3 -7 -1 -14 -8 -14 -7 0 -10 -3 -6 -6 3 -4 0 -21 -8 -40
-7 -18 -11 -42 -8 -54 4 -13 0 -25 -8 -30 -10 -7 -6 -12 14 -19 42 -16 47 -14
47 19 0 17 5 30 13 30 22 1 45 43 36 68 -11 29 -33 29 -26 0 l6 -23 -19 23
c-10 13 -17 29 -14 36 3 7 -2 16 -10 19 -10 4 -13 1 -9 -9z"/>
<path d="M2590 790 c0 -5 5 -10 10 -10 6 0 10 5 10 10 0 6 -4 10 -10 10 -5 0
-10 -4 -10 -10z"/>
<path d="M2720 709 c-39 -16 -59 -39 -70 -80 -9 -33 -8 -41 9 -58 10 -10 28
-22 40 -26 28 -9 27 -25 -1 -25 -19 0 -20 -2 -8 -10 13 -9 13 -11 0 -20 -8 -5
-10 -10 -4 -10 15 0 46 48 39 60 -3 5 -1 12 5 15 7 5 8 11 1 19 -13 16 33 20
60 6 13 -7 19 -7 19 0 0 5 5 10 11 10 8 0 8 -5 -1 -15 -14 -17 -40 -20 -40 -5
0 17 -14 11 -29 -11 -11 -19 -11 -21 2 -16 8 3 23 -3 33 -14 9 -10 25 -19 36
-19 20 0 22 4 9 28 -6 12 -3 23 12 37 11 11 17 14 13 7 -4 -7 -2 -21 6 -30 12
-16 11 -16 -7 -3 -19 14 -19 14 -4 -2 15 -18 54 -14 43 4 -3 5 0 9 5 9 6 0 11
-4 11 -10 0 -5 7 -10 16 -10 14 0 14 -3 4 -15 -11 -14 -9 -14 16 0 16 8 38 15
49 15 18 -1 18 -2 3 -13 -9 -7 -24 -17 -34 -23 -17 -10 -17 -11 0 -17 12 -5
15 -3 11 6 -4 6 2 2 12 -9 19 -23 63 -41 63 -26 0 13 48 33 55 22 3 -5 -4 -11
-15 -15 -11 -3 -20 -11 -20 -17 0 -6 7 -5 17 3 15 12 16 12 10 -3 -8 -21 22
-25 41 -6 7 7 12 8 12 2 0 -6 -12 -17 -26 -24 l-25 -14 35 -18 c19 -10 38 -22
41 -28 3 -5 15 -10 26 -10 13 0 19 7 18 23 0 21 -1 21 -8 2 -8 -19 -8 -19 -20
3 -7 14 -18 21 -26 18 -8 -3 -17 -1 -20 3 -2 5 7 12 20 15 14 4 23 10 20 15
-5 9 24 25 32 18 2 -2 6 -21 8 -42 6 -46 2 -41 45 -49 22 -4 30 -3 21 3 -11 7
-9 12 10 22 33 17 46 38 41 64 -2 13 1 26 7 29 7 4 11 -1 11 -13 0 -27 31 -28
48 -1 16 26 35 26 27 0 -4 -11 -2 -20 4 -20 6 0 10 4 9 9 -2 5 0 9 5 10 21 3
28 0 22 -9 -3 -5 3 -10 14 -10 12 0 21 6 21 14 0 8 8 17 18 19 16 4 16 5 0 6
-21 1 -23 12 -6 29 10 10 10 15 -2 22 -12 8 -12 10 5 11 23 1 48 5 88 15 17 4
27 2 27 -5 0 -6 -14 -14 -32 -19 -44 -11 -46 -27 -3 -30 19 -2 35 2 35 8 0 5
6 10 14 10 26 0 28 20 6 38 -20 16 -21 19 -6 31 14 12 16 12 10 -3 -5 -13 0
-16 27 -16 26 0 30 -3 21 -12 -7 -7 -12 -15 -12 -19 0 -10 54 3 62 15 13 19 9
24 -14 20 l-23 -5 23 10 c12 6 22 13 22 15 0 15 -38 65 -44 59 -4 -4 -11 -1
-16 7 -8 13 -10 12 -10 -2 0 -22 -16 -23 -24 -2 -3 8 -11 12 -18 8 -6 -4 -25
-10 -41 -13 -30 -6 -30 -7 -11 -26 15 -15 16 -18 2 -13 -11 5 -18 0 -21 -13
-3 -11 -15 -23 -26 -26 -12 -3 -21 -9 -21 -14 0 -5 -7 -9 -16 -9 -10 0 -14 6
-11 14 14 36 -50 42 -98 10 -11 -8 -30 -14 -44 -14 -37 0 -18 -11 35 -21 32
-6 51 -5 60 2 25 21 34 4 11 -22 -19 -22 -27 -24 -57 -18 -21 4 -37 3 -41 -3
-4 -5 -9 -3 -12 6 -7 18 -27 22 -27 5 0 -5 5 -7 12 -3 7 4 8 3 4 -4 -4 -7 -20
-10 -37 -7 -19 4 -29 1 -29 -7 0 -10 -2 -10 -9 0 -5 8 -23 17 -41 21 -19 3
-35 12 -38 20 -3 10 0 11 14 3 25 -13 96 -18 112 -8 10 6 9 11 -5 21 -12 9
-22 10 -30 4 -7 -7 -13 -6 -17 0 -4 6 -20 8 -36 4 -26 -5 -37 2 -92 55 -42 40
-75 63 -96 67 -19 3 -32 1 -32 -5 0 -5 -5 -10 -11 -10 -5 0 -8 4 -4 9 5 10 -5
14 -65 27 -19 4 -42 9 -50 11 -46 10 -148 12 -170 2z m120 -29 c0 -5 -4 -10
-9 -10 -6 0 -13 5 -16 10 -3 6 1 10 9 10 9 0 16 -4 16 -10z m-65 -30 c3 -6 -1
-7 -9 -4 -18 7 -21 14 -7 14 6 0 13 -4 16 -10z m-60 -10 c3 5 11 10 17 10 7 0
6 -6 -2 -15 -16 -19 -21 -19 -46 1 -18 15 -18 15 3 5 14 -7 24 -8 28 -1z m345
0 c0 -5 -4 -10 -10 -10 -5 0 -10 5 -10 10 0 6 5 10 10 10 6 0 10 -4 10 -10z
m-185 -30 c3 -5 1 -10 -4 -10 -6 0 -11 5 -11 10 0 6 2 10 4 10 3 0 8 -4 11
-10z m165 -20 c12 -6 16 -17 13 -30 -3 -11 -8 -20 -11 -20 -8 0 -31 34 -32 48
0 15 6 15 30 2z m-65 -20 c17 -19 17 -19 -8 -7 -14 6 -23 15 -21 19 7 11 9 10
29 -12z m116 -15 c-1 -15 -24 -12 -29 3 -3 9 2 13 12 10 10 -1 17 -7 17 -13z
m89 -36 c0 -5 -12 -7 -27 -3 -36 9 -40 13 -23 24 15 9 50 -5 50 -21z m-116
-30 c-3 -5 -10 -7 -15 -3 -5 3 -7 10 -3 15 3 5 10 7 15 3 5 -3 7 -10 3 -15z
m321 -29 c3 -5 1 -10 -4 -10 -6 0 -11 5 -11 10 0 6 2 10 4 10 3 0 8 -4 11 -10z
m-125 -10 c0 -5 -2 -10 -4 -10 -3 0 -8 5 -11 10 -3 6 -1 10 4 10 6 0 11 -4 11
-10z"/>
<path d="M3495 620 c3 -5 11 -10 16 -10 6 0 7 5 4 10 -3 6 -11 10 -16 10 -6 0
-7 -4 -4 -10z"/>
<path d="M1485 600 c-16 -7 -17 -9 -3 -9 9 -1 23 -3 31 -6 8 -4 14 0 14 10 0
17 -12 18 -42 5z"/>
<path d="M1554 595 c21 -21 20 -26 -1 -18 -10 3 -15 3 -12 -1 4 -4 21 -11 38
-16 30 -8 32 -8 25 13 -8 27 -3 23 -38 31 -26 6 -27 6 -12 -9z"/>
<path d="M1626 572 c-7 -12 -2 -38 12 -54 7 -9 23 -13 43 -10 22 3 30 1 25 -7
-4 -6 -2 -11 3 -11 21 0 11 18 -29 54 -43 39 -46 40 -54 28z"/>
<path d="M1675 490 c3 -5 8 -10 11 -10 2 0 4 5 4 10 0 6 -5 10 -11 10 -5 0 -7
-4 -4 -10z"/>
<path d="M1735 490 c-9 -14 -7 -16 34 -24 29 -5 32 -4 21 9 -7 9 -15 13 -18
10 -3 -3 -11 0 -18 6 -8 7 -14 7 -19 -1z"/>
<path d="M1820 480 c0 -5 6 -10 14 -10 8 0 18 5 21 10 3 6 -3 10 -14 10 -12 0
-21 -4 -21 -10z"/>
<path d="M3540 460 c-9 -6 -10 -10 -3 -10 6 0 15 5 18 10 8 12 4 12 -15 0z"/>
<path d="M3201 414 c0 -11 3 -14 6 -6 3 7 2 16 -1 19 -3 4 -6 -2 -5 -13z"/>
<path d="M3395 420 c-3 -5 1 -10 9 -10 9 0 16 5 16 10 0 6 -4 10 -9 10 -6 0
-13 -4 -16 -10z"/>
<path d="M3355 410 c-3 -5 -1 -10 4 -10 6 0 11 5 11 10 0 6 -2 10 -4 10 -3 0
-8 -4 -11 -10z"/>
</g>
</svg>
